<svg aria-hidden="true" style="position: absolute; width: 0; height: 0; overflow: hidden;"
    xmlns="http://www.w3.org/2000/svg"
    xmlns:xlink="http://www.w3.org/1999/xlink">
    <defs>
        <symbol id="icon-close" viewBox="0 0 455.111 455.111">

            <title>icon-close</title>

            <circle style="fill:#ffa899;" cx="227.556" cy="227.556" r="227.556"/>
            <path style="fill:#ff6347;" d="M455.111,227.556c0,125.156-102.4,227.556-227.556,227.556c-72.533,0-136.533-32.711-177.778-85.333
	c38.4,31.289,88.178,49.778,142.222,49.778c125.156,0,227.556-102.4,227.556-227.556c0-54.044-18.489-103.822-49.778-142.222
	C422.4,91.022,455.111,155.022,455.111,227.556z"/>
            <path style="fill:#FFFFFF;" d="M331.378,331.378c-8.533,8.533-22.756,8.533-31.289,0l-72.533-72.533l-72.533,72.533
	c-8.533,8.533-22.756,8.533-31.289,0c-8.533-8.533-8.533-22.756,0-31.289l72.533-72.533l-72.533-72.533
	c-8.533-8.533-8.533-22.756,0-31.289c8.533-8.533,22.756-8.533,31.289,0l72.533,72.533l72.533-72.533
	c8.533-8.533,22.756-8.533,31.289,0c8.533,8.533,8.533,22.756,0,31.289l-72.533,72.533l72.533,72.533
	C339.911,308.622,339.911,322.844,331.378,331.378z"/>
        </symbol>

        <symbol id="icon-plus" viewBox="0 0 512 512">

            <title>icon-plus</title>

            <path d="m256 0c-141.164062 0-256 114.835938-256 256s114.835938 256 256 256 256-114.835938 256-256-114.835938-256-256-256zm0 0" fill="#00a046"/>
            <path d="m368 277.332031h-90.667969v90.667969c0 11.777344-9.554687 21.332031-21.332031 21.332031s-21.332031-9.554687-21.332031-21.332031v-90.667969h-90.667969c-11.777344 0-21.332031-9.554687-21.332031-21.332031s9.554687-21.332031 21.332031-21.332031h90.667969v-90.667969c0-11.777344 9.554687-21.332031 21.332031-21.332031s21.332031 9.554687 21.332031 21.332031v90.667969h90.667969c11.777344 0 21.332031 9.554687 21.332031 21.332031s-9.554687 21.332031-21.332031 21.332031zm0 0" fill="#fafafa"/>
        </symbol>

        <symbol id="icon-minus" viewBox="0 0 512 512">

            <title>icon-minus</title>

            <g>
                <circle fill="#44b26f" cx="256" cy="256" r="236.17"/>
                <path style="fill:#44b26f;" d="M256,512C114.853,512,0,397.167,0,256C0,114.853,114.853,0,256,0c141.167,0,256,114.853,256,256
		C512,397.167,397.167,512,256,512z M256,39.659C136.705,39.659,39.659,136.705,39.659,256S136.705,472.341,256,472.341
		S472.341,375.275,472.341,256C472.341,136.705,375.295,39.659,256,39.659z"/>
            </g>
            <path style="fill:#FFFFFF;" d="M355.148,273.866H156.852c-10.946,0-19.83-8.884-19.83-19.83s8.884-19.83,19.83-19.83h198.296
	c10.966,0,19.83,8.884,19.83,19.83S366.114,273.866,355.148,273.866z"/>
        </symbol>
    </defs>
</svg>